USFL
nRows=142
nColumns=2
inDegrees=yes
endheader
time	med_gas_r	
3.1248	 40.878398	
3.1873	 40.858196	
3.24979	 40.862125	
3.31229	 40.869059	
3.37478	 40.854369	
3.43728	 40.854109	
3.49978	 40.858733	
3.56227	 40.871271	
3.62477	 40.875077	
3.68726	 40.873537	
3.74976	 40.885802	
3.81226	 40.882176	
3.87475	 40.853521	
3.93725	 40.818886	
3.99974	 40.802591	
4.06224	 40.697083	
4.12474	 40.705353	
4.18723	 40.555816	
4.24973	 40.617444	
4.31222	 40.562143	
4.37472	 40.452333	
4.43722	 40.577672	
4.49971	 40.267042	
4.56221	 39.867018	
4.6247	 39.703047	
4.6872	 39.398929	
4.7497	 39.219110	
4.81219	 39.171418	
4.87469	 38.865091	
4.93718	 38.674591	
4.99968	 38.562839	
5.06218	 38.519988	
5.12467	 38.490946	
5.18717	 38.554286	
5.24966	 38.401370	
5.31216	 38.415586	
5.37466	 38.324933	
5.43715	 38.229328	
5.49965	 38.156750	
5.56214	 38.133025	
5.62464	 37.995582	
5.68714	 37.928426	
5.74963	 37.938055	
5.81213	 38.040454	
5.87462	 38.043684	
5.93712	 38.041480	
5.99962	 38.038167	
6.06211	 38.075957	
6.12461	 38.194609	
6.1871	 38.322103	
6.2496	 38.320693	
6.3121	 38.361366	
6.37459	 38.491334	
6.43709	 38.541695	
6.49958	 38.333722	
6.56208	 38.484787	
6.62458	 38.487243	
6.68707	 38.572377	
6.74957	 38.749811	
6.81206	 38.487486	
6.87456	 38.599720	
6.93706	 38.870787	
6.99955	 37.764438	
7.06205	 37.898429	
7.12454	 38.003836	
7.18704	 38.234277	
7.24954	 38.222495	
7.31203	 38.296324	
7.37453	 38.303787	
7.43702	 37.802282	
7.49952	 37.888753	
7.56202	 38.048191	
7.62451	 38.140838	
7.68701	 38.414219	
7.7495	 38.256762	
7.812	 38.357344	
7.8745	 38.520544	
7.93699	 38.674922	
7.99949	 38.708171	
8.06198	 38.229344	
8.12448	 38.215449	
8.18698	 38.310831	
8.24947	 38.353406	
8.31197	 38.352997	
8.37446	 38.512455	
8.43696	 38.490202	
8.49946	 38.311272	
8.56195	 38.296061	
8.62445	 38.190732	
8.68694	 38.189817	
8.74944	 38.223093	
8.81194	 38.230481	
8.87443	 38.170175	
8.93693	 38.130372	
8.99942	 38.180050	
9.06192	 38.237876	
9.12442	 38.228982	
9.18691	 38.155675	
9.24941	 38.122351	
9.3119	 38.200925	
9.3744	 38.258752	
9.4369	 38.267702	
9.49939	 38.296575	
9.56189	 38.305147	
9.62438	 38.357867	
9.68688	 38.399743	
9.74938	 38.441946	
9.81187	 38.471350	
9.87437	 38.494753	
9.93686	 38.651098	
9.99936	 38.727184	
10.0619	 38.733885	
10.1244	 38.864857	
10.1868	 38.194846	
10.2493	 38.133391	
10.3118	 38.184027	
10.3743	 38.381059	
10.4368	 38.306981	
10.4993	 38.388985	
10.5618	 38.596319	
10.6243	 38.610366	
10.6868	 38.697727	
10.7493	 38.764043	
10.8118	 38.694683	
10.8743	 38.613311	
10.9368	 38.651803	
10.9993	 38.515994	
11.0618	 38.367131	
11.1243	 38.440092	
11.1868	 38.287754	
11.2493	 38.130391	
11.3118	 38.095959	
11.3743	 38.210982	
11.4368	 38.310575	
11.4993	 38.313459	
11.5618	 38.298902	
11.6243	 38.298675	
11.6868	 38.381257	
11.7492	 38.313020	
11.8117	 38.311876	
11.8742	 38.325569	
11.9367	 38.284623	
